<mxfile host="app.diagrams.net" modified="2023-05-09T13:25:39.559Z" agent="Mozilla/5.0 (Windows NT 10.0; Win64; x64) AppleWebKit/537.36 (KHTML, like Gecko) Chrome/112.0.0.0 Safari/537.36 Edg/112.0.1722.68" etag="YUrK2SYPRKEl0dXrV8mv" version="21.2.9" type="device">
  <diagram name="페이지-1" id="Xh_3bB8HXazgNSsgfuQy">
    <mxGraphModel dx="993" dy="573" grid="1" gridSize="10" guides="1" tooltips="1" connect="1" arrows="1" fold="1" page="1" pageScale="1" pageWidth="827" pageHeight="1169" math="0" shadow="0">
      <root>
        <mxCell id="0" />
        <mxCell id="1" parent="0" />
        <mxCell id="SJ59IOcCmpB_QpGtVWIr-1" value=":일반회원" style="shape=umlActor;verticalLabelPosition=bottom;verticalAlign=top;html=1;outlineConnect=0;" vertex="1" parent="1">
          <mxGeometry x="60" y="230" width="30" height="60" as="geometry" />
        </mxCell>
        <mxCell id="SJ59IOcCmpB_QpGtVWIr-2" value=":지원정보 통계 보기UI" style="rounded=0;whiteSpace=wrap;html=1;" vertex="1" parent="1">
          <mxGeometry x="160" y="250" width="140" height="30" as="geometry" />
        </mxCell>
        <mxCell id="SJ59IOcCmpB_QpGtVWIr-3" value=":지원정보 통계 보기" style="rounded=0;whiteSpace=wrap;html=1;" vertex="1" parent="1">
          <mxGeometry x="350" y="250" width="120" height="30" as="geometry" />
        </mxCell>
        <mxCell id="SJ59IOcCmpB_QpGtVWIr-4" value="" style="endArrow=none;html=1;rounded=0;entryX=0;entryY=0.5;entryDx=0;entryDy=0;" edge="1" parent="1" target="SJ59IOcCmpB_QpGtVWIr-2">
          <mxGeometry width="50" height="50" relative="1" as="geometry">
            <mxPoint x="90" y="265" as="sourcePoint" />
            <mxPoint x="140" y="220" as="targetPoint" />
          </mxGeometry>
        </mxCell>
        <mxCell id="SJ59IOcCmpB_QpGtVWIr-5" value="" style="endArrow=none;html=1;rounded=0;entryX=0;entryY=0.5;entryDx=0;entryDy=0;exitX=1;exitY=0.5;exitDx=0;exitDy=0;" edge="1" parent="1" source="SJ59IOcCmpB_QpGtVWIr-2" target="SJ59IOcCmpB_QpGtVWIr-3">
          <mxGeometry width="50" height="50" relative="1" as="geometry">
            <mxPoint x="300" y="270" as="sourcePoint" />
            <mxPoint x="350" y="220" as="targetPoint" />
          </mxGeometry>
        </mxCell>
        <mxCell id="SJ59IOcCmpB_QpGtVWIr-6" value="" style="endArrow=classic;rounded=0;movable=1;resizable=1;rotatable=1;deletable=1;editable=1;locked=0;connectable=1;html=1;verticalAlign=top;" edge="1" parent="1">
          <mxGeometry width="50" height="50" relative="1" as="geometry">
            <mxPoint x="350" y="300" as="sourcePoint" />
            <mxPoint x="293" y="300" as="targetPoint" />
          </mxGeometry>
        </mxCell>
        <mxCell id="SJ59IOcCmpB_QpGtVWIr-7" value="2: startInterface()" style="text;strokeColor=none;fillColor=none;align=left;verticalAlign=middle;spacingLeft=4;spacingRight=4;overflow=hidden;points=[[0,0.5],[1,0.5]];portConstraint=eastwest;rotatable=0;whiteSpace=wrap;html=1;" vertex="1" parent="1">
          <mxGeometry x="270" y="300" width="110" height="30" as="geometry" />
        </mxCell>
        <mxCell id="SJ59IOcCmpB_QpGtVWIr-8" value=":지원정보" style="rounded=0;whiteSpace=wrap;html=1;" vertex="1" parent="1">
          <mxGeometry x="590" y="250" width="120" height="30" as="geometry" />
        </mxCell>
        <mxCell id="SJ59IOcCmpB_QpGtVWIr-9" value="1 *[For all apply]: getApplyStatistics()" style="text;strokeColor=none;fillColor=none;align=left;verticalAlign=middle;spacingLeft=4;spacingRight=4;overflow=hidden;points=[[0,0.5],[1,0.5]];portConstraint=eastwest;rotatable=0;whiteSpace=wrap;html=1;" vertex="1" parent="1">
          <mxGeometry x="460" y="170" width="170" height="40" as="geometry" />
        </mxCell>
        <mxCell id="SJ59IOcCmpB_QpGtVWIr-10" value="" style="endArrow=none;html=1;rounded=0;entryX=0;entryY=0.5;entryDx=0;entryDy=0;exitX=1;exitY=0.5;exitDx=0;exitDy=0;" edge="1" parent="1" source="SJ59IOcCmpB_QpGtVWIr-3" target="SJ59IOcCmpB_QpGtVWIr-8">
          <mxGeometry width="50" height="50" relative="1" as="geometry">
            <mxPoint x="390" y="300" as="sourcePoint" />
            <mxPoint x="440" y="250" as="targetPoint" />
          </mxGeometry>
        </mxCell>
        <mxCell id="SJ59IOcCmpB_QpGtVWIr-11" value="" style="endArrow=classic;html=1;rounded=0;" edge="1" parent="1">
          <mxGeometry width="50" height="50" relative="1" as="geometry">
            <mxPoint x="490" y="220" as="sourcePoint" />
            <mxPoint x="570" y="220" as="targetPoint" />
          </mxGeometry>
        </mxCell>
        <mxCell id="SJ59IOcCmpB_QpGtVWIr-17" value="" style="endArrow=classic;rounded=0;movable=1;resizable=1;rotatable=1;deletable=1;editable=1;locked=0;connectable=1;html=1;verticalAlign=top;" edge="1" parent="1">
          <mxGeometry width="50" height="50" relative="1" as="geometry">
            <mxPoint x="350" y="300" as="sourcePoint" />
            <mxPoint x="293" y="300" as="targetPoint" />
          </mxGeometry>
        </mxCell>
        <mxCell id="SJ59IOcCmpB_QpGtVWIr-18" value="" style="endArrow=classic;html=1;rounded=0;" edge="1" parent="1">
          <mxGeometry width="50" height="50" relative="1" as="geometry">
            <mxPoint x="490" y="220" as="sourcePoint" />
            <mxPoint x="570" y="220" as="targetPoint" />
          </mxGeometry>
        </mxCell>
      </root>
    </mxGraphModel>
  </diagram>
</mxfile>
